<svg xmlns="http://www.w3.org/2000/svg" viewBox="0 0 283.46 283.46"><defs><style>.cls-1{fill:#666665;}.cls-2{fill:#1d1d1b;}.cls-3{fill:#2e2d2c;}.cls-4{fill:#ebebeb;}.cls-5{fill:#fff;}.cls-6,.cls-7{fill:none;stroke-miterlimit:10;}.cls-6{stroke:#fff;stroke-width:1.26px;}.cls-7{stroke:#1d1d1b;stroke-width:6.71px;}</style></defs><g id="Layer_6" data-name="Layer 6"><path class="cls-1" d="M210.41,28.9A140.27,140.27,0,0,0,25.07,203.61,132.07,132.07,0,0,1,210.41,28.9Z"/><path class="cls-2" d="M273.79,141.7A132.1,132.1,0,0,1,85.69,261.3,138.64,138.64,0,0,0,229.16,42.75,131.67,131.67,0,0,1,273.79,141.7Z"/><path class="cls-3" d="M257.44,126.65A138.76,138.76,0,0,1,85.69,261.3a132.47,132.47,0,0,1-60.62-57.69A140.27,140.27,0,0,1,210.41,28.9a130.78,130.78,0,0,1,18.75,13.85A138,138,0,0,1,257.44,126.65Z"/><path class="cls-4" d="M166.15,201.39c.38.39,7.53,7.94,7.8,17.7.26,9.55,0,39.84,0,42.67a1,1,0,0,0,.1.44,8.85,8.85,0,0,0,.87,1.46,9,9,0,0,1-4.63-4.42,1,1,0,0,1-.1-.44c0-2.83.26-33.12,0-42.68-.27-9.76-7.42-17.3-7.8-17.69,33.27-3.94,57.43-18.31,57.43-59.69,0-16.86-4.71-29.72-12.84-39.25,4.92-10.4,1.56-24.1-.42-30.27.86-.13,1.73-.22,2.61-.31,0,0,8.12,19.71,1.57,33.55,8.13,9.53,12.84,22.38,12.84,39.24C223.58,183.09,199.42,197.46,166.15,201.39Z"/><path class="cls-5" d="M162.39,198.43c.38.39,7.53,7.93,7.8,17.69.26,9.56,0,39.85,0,42.68a1,1,0,0,0,.1.44,9,9,0,0,0,4.63,4.42,9,9,0,0,0,1.53,1.61,9.77,9.77,0,0,0,6.45,2.18s-16.42,5.48-41.17,6.31-40.45-6.31-40.45-6.31a10.64,10.64,0,0,0,3.36-.51,9,9,0,0,0,5.49-4.74,1,1,0,0,0,.09-.44c0-1.73-.11-13.85-.12-25.15-.17,0-1.58.34-3.76.68-7.07,1.1-22.24,2.54-29.29-3.5-.62-.53-1.19-1-1.73-1.56-7.69-7.25-8.13-12.72-12.7-19-4.91-6.69-15.18-13.83-15.62-15.46s4-4.77,10.56-2.09a59.73,59.73,0,0,1,6.09,2.65c2.54,1.45,4.74,3.62,8.79,9.11a62.47,62.47,0,0,0,7.72,9s0,0,0,0c4.38,4,9.13,6.38,14.85,5.73a78,78,0,0,0,15.18-3.09c.29-10,7.82-17.71,7.82-17.71-1.88-.22-3.76-.49-5.58-.79C98.29,198.29,86,193.76,76.9,185.8c-10.66-9.31-17-23.35-17-44.1,0-16.25,4.9-29,13.34-38.67-7.06-13.87,1.29-34.12,1.29-34.12a69.08,69.08,0,0,1,35.14,13.62,133.6,133.6,0,0,1,32.07-3.62,144.18,144.18,0,0,1,32.62,3.37,69.46,69.46,0,0,1,32.21-13.06c2,6.17,5.34,19.87.42,30.27,8.13,9.53,12.84,22.39,12.84,39.25C219.82,180.12,195.66,194.49,162.39,198.43Z"/><path class="cls-6" d="M166.15,201.39h0"/><path class="cls-6" d="M112.09,84.56a31.55,31.55,0,0,0-2.43-2"/><path class="cls-6" d="M210.74,102.46c-.09.19-.18.38-.28.57"/><path class="cls-6" d="M174.35,82.28a35.38,35.38,0,0,0-2.75,2.28"/><path class="cls-6" d="M110.11,236.61h0"/><circle class="cls-7" cx="141.73" cy="141.7" r="132.06"/></g></svg>