<svg id="Layer_2" data-name="Layer 2" xmlns="http://www.w3.org/2000/svg" viewBox="0 0 100 100"><defs><style>.cls-1,.cls-4{fill:#e73838;}.cls-1,.cls-2{stroke:#1d1d1b;stroke-miterlimit:10;}.cls-1{stroke-width:3.98px;}.cls-2{fill:none;stroke-width:1.81px;}.cls-3{fill:#e85d5d;}.cls-5{fill:#ce2a28;}</style></defs><title>Laptop</title><path class="cls-1" d="M49.24,3.65a31.71,31.71,0,0,0-31.7,31.7c0,.33,0,.65,0,1s0,.45,0,.67C18.8,63.64,49.24,95.12,49.24,95.12S79.66,64.68,80.9,37c0-.2,0-.39,0-.59s0-.7,0-1A31.7,31.7,0,0,0,49.24,3.65Zm0,50A17.34,17.34,0,1,1,66.58,36.32,17.33,17.33,0,0,1,49.24,53.66Z"/><circle class="cls-2" cx="49.24" cy="36.32" r="17.33"/><circle class="cls-2" cx="49.24" cy="36.32" r="17.33"/><path class="cls-3" d="M45.93,3.83A31.7,31.7,0,0,0,17.54,35.35c0,.33,0,.65,0,1s0,.45,0,.67C18.36,54,31,73,40.11,84.47A156.93,156.93,0,0,1,27.32,45.12C24.67,29.52,31.3,9.92,45.93,3.83Z"/><path class="cls-4" d="M49.24,3.65a30.32,30.32,0,0,0-3.31.18C31.3,9.92,24.67,29.52,27.32,45.12A156.93,156.93,0,0,0,40.11,84.47c3.29,4.17,6.1,7.36,7.7,9.12C64.16,74.81,78,52.39,79.91,27.3A31.71,31.71,0,0,0,49.24,3.65Zm0,50A17.34,17.34,0,1,1,66.58,36.32,17.33,17.33,0,0,1,49.24,53.66Z"/><path class="cls-5" d="M79.91,27.3C78,52.39,64.16,74.81,47.81,93.59c.91,1,1.43,1.53,1.43,1.53S79.66,64.68,80.9,37c0-.2,0-.39,0-.59s0-.7,0-1A31.89,31.89,0,0,0,79.91,27.3Z"/></svg>