<svg xmlns="http://www.w3.org/2000/svg" viewBox="0 0 283.46 283.46"><defs><style>.cls-1{fill:#5e83c2;}.cls-2{fill:#2a69b1;}.cls-3{fill:#fff;}.cls-4{fill:none;stroke:#1d1d1b;stroke-miterlimit:10;stroke-width:6.14px;}</style></defs><g id="Layer_6" data-name="Layer 6"><path class="cls-1" d="M173.09,10.07,47.55,273.4H30.76a20.69,20.69,0,0,1-20.69-20.69V30.76A20.68,20.68,0,0,1,30.76,10.07Z"/><path class="cls-2" d="M273.4,30.76v222a20.7,20.7,0,0,1-20.7,20.69H47.55L173.09,10.07H252.7A20.69,20.69,0,0,1,273.4,30.76Z"/><rect class="cls-3" x="49.71" y="109.57" width="39.97" height="125.11"/><path class="cls-3" d="M233,149.53v85.16h-37.8V157.8s-1.3-15.65-21.28-16.3-21.72,21.08-21.72,21.08v72.11h-39.1V109.58h39.1v15.63s13-23,48.22-17.8c27.37,4,31.68,27.86,32.47,40C233,148.23,233,148.48,233,149.53Z"/><path class="cls-4" d="M273.4,30.76v222a20.7,20.7,0,0,1-20.7,20.69H30.76a20.69,20.69,0,0,1-20.69-20.69V30.76A20.68,20.68,0,0,1,30.76,10.07H252.7A20.69,20.69,0,0,1,273.4,30.76Z"/><circle class="cls-3" cx="69.7" cy="70.04" r="22.16"/><path class="cls-3" d="M233,149.53c.09,2.44,0,3.92,0,3.92"/><path class="cls-3" d="M233,148.23v1.3c0-.41-.1-2.27-.13-2.73Z"/></g></svg>