<svg xmlns="http://www.w3.org/2000/svg" viewBox="0 0 283.46 283.46"><defs><style>.cls-1,.cls-7{fill:#dadada;}.cls-1,.cls-2,.cls-3,.cls-6{stroke:#1d1d1b;stroke-miterlimit:10;stroke-width:5px;}.cls-2{fill:#9d9d9c;}.cls-3{fill:#c6c6c6;}.cls-4{fill:#fdfdfd;}.cls-5{fill:#e9f2f2;}.cls-6{fill:none;}</style></defs><title>Pin</title><g id="Layer_4" data-name="Layer 4"><path class="cls-1" d="M247.45,60.55h-213A9.47,9.47,0,0,0,25,70V193.66a9.43,9.43,0,0,0,1.24,4.69h84.19l3.12,4.77h54.8l3.12-4.77h84.19a9.43,9.43,0,0,0,1.24-4.69V70A9.47,9.47,0,0,0,247.45,60.55Zm-5.23,122.81a2.45,2.45,0,0,1-2.45,2.44h-199a2.44,2.44,0,0,1-2.44-2.44V75.81A.71.71,0,0,1,39,75.1H241.5a.71.71,0,0,1,.72.71Z"/><polygon class="cls-2" points="169.73 200.63 161.72 211.09 120.2 211.09 112.19 200.63 169.73 200.63"/><path class="cls-3" d="M274.46,198.35c1,0,1.78.85,1.47,1.69-2.14,5.85-9.46,24.78-14.32,24.78H20.3C15.45,224.82,8.13,205.89,6,200c-.31-.84.43-1.69,1.47-1.69h103l3.12,4.07,6.64,8.67h41.52l6.64-8.67,3.12-4.07Z"/><polygon class="cls-4" points="152.43 75.1 242.22 75.81 239.77 185.8 56.84 185.8 152.43 75.1"/><polygon class="cls-5" points="152.43 75.1 56.84 185.8 40.76 185.8 38.32 75.81 152.43 75.1"/><path class="cls-6" d="M242.22,75.81V183.36a2.45,2.45,0,0,1-2.45,2.44h-199a2.44,2.44,0,0,1-2.44-2.44V75.81A.71.71,0,0,1,39,75.1H241.5A.71.71,0,0,1,242.22,75.81Z"/><path class="cls-7" d="M9,200.87H26S33.71,218.93,37,220.3a40.92,40.92,0,0,0,8.7,2H20.26S16.3,220.15,9,200.87Z"/></g></svg>