<svg xmlns="http://www.w3.org/2000/svg" viewBox="0 0 283.46 283.46"><defs><style>.cls-1{fill:#c47744;}.cls-2{fill:#f18848;}.cls-3{fill:#ec661d;}.cls-4{fill:none;stroke:#1d1d1b;stroke-miterlimit:10;stroke-width:5.08px;}</style></defs><g id="Layer_6" data-name="Layer 6"><path class="cls-1" d="M108.25,219.32a44.68,44.68,0,0,1-81.11,25.85A44.67,44.67,0,0,0,94.46,187,44.54,44.54,0,0,1,108.25,219.32Z"/><path class="cls-2" d="M94.47,187.07a46.11,46.11,0,0,0-68.28,56.71A44.67,44.67,0,0,1,94.46,187S94.47,187.06,94.47,187.07Z"/><path class="cls-3" d="M102.7,212.9a44.68,44.68,0,0,1-75.56,32.27c-.33-.46-.63-.92-.95-1.39a46.09,46.09,0,0,1,68.28-56.71A44.36,44.36,0,0,1,102.7,212.9Z"/><path class="cls-1" d="M197.13,246.92a19.05,19.05,0,0,1-18.36,19.74c-.24,0-.47,0-.7,0a19.09,19.09,0,0,1-17.67-11.93,18.74,18.74,0,0,0,9.83,2.75h.7a19.07,19.07,0,0,0,18.36-19.74c-1.51-42.44-15-73.57-32.85-96.3C178,164.75,195.41,198.46,197.13,246.92Z"/><path class="cls-2" d="M144.49,129.9a172.62,172.62,0,0,0-21.32-13.51c-39.43-21.28-78-23.81-79.64-23.92a19.65,19.65,0,0,0-20.78,18.41,19.23,19.23,0,0,0,1.39,8.62c.09.2.18.42.28.62A19,19,0,0,1,37.11,86c1.58.1,39,2.55,77.18,23.17A167.26,167.26,0,0,1,144.49,129.9Z"/><path class="cls-3" d="M189.29,237.75a19.07,19.07,0,0,1-18.36,19.74h-.7c-.33,0-.66,0-1,0a18.6,18.6,0,0,1-8.83-2.71,18.79,18.79,0,0,1-1.37-6.47c-1.17-32.93-11.33-59.9-30.25-80.58-.54-.6-1.1-1.2-1.66-1.78a123.39,123.39,0,0,0-29.88-22.65A168.33,168.33,0,0,0,34.77,124a19.06,19.06,0,0,1-10.35-3.91c-.1-.2-.19-.42-.28-.62a19.23,19.23,0,0,1-1.39-8.62A19.65,19.65,0,0,1,43.53,92.47c1.62.11,40.21,2.64,79.64,23.92a172.62,172.62,0,0,1,21.32,13.51,150.2,150.2,0,0,1,11.95,11.55C174.26,164.18,187.78,195.31,189.29,237.75Z"/><path class="cls-1" d="M248.85,267.22c-.45,0-.9,0-1.34,0a19.67,19.67,0,0,1-18.13-12.1,19.47,19.47,0,0,0,10.28,2.93c.45,0,.91,0,1.35-.06a19.64,19.64,0,0,0,18.29-20.93C254.88,171.58,233.78,125,207.15,92c30.24,33.38,55.15,82.42,60,154.27A19.65,19.65,0,0,1,248.85,267.22Z"/><path class="cls-2" d="M184.46,70.44a233.7,233.7,0,0,0-29.13-17.89C98.84,23.29,44.63,23,42.35,23A20.29,20.29,0,0,0,23.61,51l0,.08a20,20,0,0,1-5.85-7.77A19.67,19.67,0,0,1,36,16.14c2.21,0,54.74.32,109.47,28.67A224.19,224.19,0,0,1,184.46,70.44Z"/><path class="cls-3" d="M241,258c-.32,0-.65,0-1,0a2.36,2.36,0,0,1-.38,0,19.47,19.47,0,0,1-10.28-2.93,19.52,19.52,0,0,1-1.47-6.24c-3.7-54.84-20.58-98.76-50.35-131.21-1.59-1.74-3.23-3.44-4.89-5.11a180.86,180.86,0,0,0-45.33-32.88C81,55.73,36.41,55.45,36,55.45a19.53,19.53,0,0,1-12.32-4.34l0-.08A20.29,20.29,0,0,1,42.35,23c2.28,0,56.49.33,113,29.59a233.7,233.7,0,0,1,29.13,17.89A213,213,0,0,1,207.15,92c26.63,33,47.73,79.56,52.15,145.09A19.64,19.64,0,0,1,241,258Z"/><path class="cls-4" d="M108.22,219.37a44.67,44.67,0,0,1-81.1,25.85c-.33-.46-.64-.91-.95-1.38A44.67,44.67,0,0,1,94.43,187.1s0,0,0,0A44.47,44.47,0,0,1,108.22,219.37Z"/><path class="cls-4" d="M197.11,247a19.07,19.07,0,0,1-18.37,19.74H178a19.08,19.08,0,0,1-17.66-11.92,18.85,18.85,0,0,1-1.38-6.47c-1.17-32.94-11.32-59.91-30.25-80.59-.53-.6-1.09-1.19-1.65-1.78a123.59,123.59,0,0,0-29.88-22.65,168.35,168.35,0,0,0-62.48-19.24A19.07,19.07,0,0,1,37.08,86c1.58.1,39,2.56,77.18,23.17A167.77,167.77,0,0,1,144.46,130a148.52,148.52,0,0,1,11.95,11.55C178,164.8,195.38,198.51,197.11,247Z"/><path class="cls-4" d="M248.83,267.27c-.46,0-.91.06-1.35.06A19.67,19.67,0,0,1,227.88,249c-3.7-54.84-20.58-98.76-50.35-131.21-1.58-1.74-3.22-3.44-4.89-5.11a181,181,0,0,0-45.32-32.88C81,55.79,36.38,55.51,35.94,55.51a19.56,19.56,0,0,1-12.32-4.35,19.89,19.89,0,0,1-5.84-7.77,19.67,19.67,0,0,1,18.16-27.2c2.21,0,54.74.32,109.48,28.68a223.53,223.53,0,0,1,39,25.62,213.85,213.85,0,0,1,22.68,21.58c30.24,33.38,55.16,82.42,60,154.27A19.66,19.66,0,0,1,248.83,267.27Z"/></g></svg>