<svg xmlns="http://www.w3.org/2000/svg" viewBox="0 0 283.46 283.46"><defs><style>.cls-1,.cls-3{fill:#2c8fc4;}.cls-1{stroke:#1d1d1b;stroke-miterlimit:10;stroke-width:10px;}.cls-2{fill:#3aa7d8;}.cls-4{fill:#237ca3;}</style></defs><title>Pin</title><g id="Layer_5" data-name="Layer 5"><path class="cls-1" d="M247.19,86l-.05,0c0,.55.06,1.15.09,1.7,0,0,0,0,0,0q.2,3.92.2,7.87A154.29,154.29,0,0,1,10.57,226a.11.11,0,0,1,.06-.2c4.83.38,48,3,77.28-22.38a0,0,0,0,0,0-.08c-2.37-.11-39.17-2.31-50.78-38.14,0,0,0,0,0,0,.82,0,15.09.7,24.12-1.79,0,0,0-.1,0-.1-3.42-.53-41.29-7.42-43.71-53,0-.07.08-.13.14-.09,1.13.74,8.69,5.29,24.21,6.74,0,0,.08-.06,0-.09-2.48-1.93-39.21-31.56-16.29-73.35a.09.09,0,0,1,.16,0c2.23,2.9,45.53,58,113.16,57.15a.12.12,0,0,0,.12-.15,54.81,54.81,0,0,1,53.41-66.9A54.59,54.59,0,0,1,231.9,50.27a57.48,57.48,0,0,0,8.22-1.65c16.88-5.07,26-11.12,27-11.78,0,0,.07,0,.07,0-1.87,13-21.84,29.54-22.43,30.05,17.34-2.23,26.89-7.27,28.12-7.95a0,0,0,0,1,.06.06C272.18,60.53,264.86,73.87,247.19,86Z"/><path class="cls-2" d="M25.79,43.42a.09.09,0,0,0-.16,0A62.61,62.61,0,0,0,20,57.08,200.26,200.26,0,0,0,109,97.24C58.74,85.37,27.67,45.86,25.79,43.42Z"/><path class="cls-3" d="M272.94,59.05a0,0,0,0,0-.06-.06c-1.23.68-10.78,5.72-28.12,7.95.59-.51,20.56-17.1,22.43-30,0,0,0-.07-.07,0-1,.66-10.12,6.71-27,11.78a57.48,57.48,0,0,1-8.22,1.65,54.77,54.77,0,0,0-53.69-14.86c-20,12.52-36.38,30.94-40.47,53.42a55.25,55.25,0,0,0,1.33,11.59.12.12,0,0,1-.12.15,123.47,123.47,0,0,1-30-3.33A200.26,200.26,0,0,1,20,57.08c-9.46,34.48,19.7,58,21.9,59.71,0,0,0,.09,0,.09-15.52-1.45-23.08-6-24.21-6.74-.06,0-.14,0-.14.09,2.42,45.61,40.29,52.5,43.71,53,.06,0,.06.08,0,.1-9,2.49-23.3,1.83-24.12,1.79,0,0,0,0,0,0,11.61,35.83,48.41,38,50.78,38.14a0,0,0,0,1,0,.08C73.32,216,55.3,221.72,40.28,224.21c21.83,11.62,49.38,8.31,73.49,5a244.22,244.22,0,0,0,97.91-34.77,153.63,153.63,0,0,0,35.75-98.75q0-4-.2-7.87s0,0,0,0c0-.55-.06-1.15-.09-1.7l.05,0C264.86,73.87,272.18,60.53,272.94,59.05Z"/><path class="cls-2" d="M178.21,35.41a54.78,54.78,0,0,0-40.49,52.87c0,.19,0,.37,0,.55C141.83,66.35,158.24,47.93,178.21,35.41Z"/><path class="cls-4" d="M40.28,224.21a130.67,130.67,0,0,1-29.65,1.58.11.11,0,0,0-.06.2,154.31,154.31,0,0,0,201.11-31.57,244.22,244.22,0,0,1-97.91,34.77C89.66,232.52,62.11,235.83,40.28,224.21Z"/></g></svg>